<svg width="500" height="500" xmlns="http://www.w3.org/2000/svg">
  <rect height="423.99995" width="423.99995" y="-0.00001" x="-1.05263" stroke-width="0" fill="#2e51a2"/>
  <path fill="#fff" d="m164.1841,141.71569l0,125.99358l-31.45457,-0.04207l0,-77.99837l-30.36776,35.96311l-29.75073,-36.76946l-0.3015,79.05714l-31.87528,0l0,-126.17589l32.95508,0l27.89963,38.06662l30.15039,-38.08065l32.74473,-0.01402zm129.05771,30.94973l0.37162,94.76339l-35.37412,0l-0.1192,-42.94678l-41.881,0c1.04475,7.46748 3.14125,18.93164 6.24043,26.64453c2.32088,5.70053 4.45945,11.21875 8.72258,16.8702l-25.50162,16.82813c-5.22373,-9.5149 -9.30455,-19.99742 -13.13295,-31.14606a139.04941,139.04941 0 0 1 -7.58668,-32.59748c-1.26912,-11.21875 -1.45143,-22.00278 1.59867,-33.0883a58.4567,58.4567 0 0 1 17.36803,-27.91365c4.68383,-4.38232 11.21875,-7.4815 16.45651,-10.27918s11.11358,-3.9476 16.56168,-5.37098a110.78517,110.78517 0 0 1 17.81678,-2.73457c5.95295,-0.51186 16.56168,-0.98865 35.75977,-0.4207l8.15463,26.16072l-41.21489,0c-8.86982,0.1192 -13.13295,0 -20.06053,3.12723a33.4459,33.4459 0 0 0 -19.11395,28.74805l39.83358,0.49082l0.56795,-27.07225l34.53973,0l-0.00701,-0.06311zm59.71881,-31.37744l0,99.11065l46.47368,0.45576l-6.42975,26.55338l-71.90518,0l0,-126.58958l31.86125,0.46979z"/>
  <path fill="#ba001f" stroke-width="0" d="m349.51545,215c-74.25253,0 -134.51546,60.26293 -134.51546,134.51546s60.26293,134.51546 134.51546,134.51546s134.51546,-60.26293 134.51546,-134.51546s-60.26293,-134.51546 -134.51546,-134.51546zm0,242.12779c-59.45578,0 -107.61233,-48.15655 -107.61233,-107.61233c0,-24.88534 8.47446,-47.75307 22.73317,-65.91262l150.79178,150.79178c-18.15956,14.25871 -41.02728,22.73317 -65.91262,22.73317zm84.87916,-41.69971l-150.79178,-150.79178c18.15956,-14.25871 41.02728,-22.73317 65.91262,-22.73317c59.45578,0 107.61233,48.15655 107.61233,107.61233c0,24.88534 -8.47446,47.75307 -22.73317,65.91262z"/>
  <path d="m408.15142,314.36675" opacity="NaN"/>
</svg>