<svg xmlns="http://www.w3.org/2000/svg" width="18" height="18">
  <path d="m9,1.26221c-4.27126,0 -7.73779,3.46653 -7.73779,7.73779s3.46653,7.73779 7.73779,7.73779s7.73779,-3.46653 7.73779,-7.73779s-3.46653,-7.73779 -7.73779,-7.73779zm0,13.92802c-3.4201,0 -6.19023,-2.77013 -6.19023,-6.19023c0,-1.43149 0.48748,-2.74692 1.30769,-3.79152l8.67406,8.67406c-1.0446,0.82021 -2.36003,1.30769 -3.79152,1.30769zm4.88254,-2.39871l-8.67406,-8.67406c1.0446,-0.82021 2.36003,-1.30769 3.79152,-1.30769c3.4201,0 6.19023,2.77013 6.19023,6.19023c0,1.43149 -0.48748,2.74692 -1.30769,3.79152z"/>
</svg>